<?xml version="1.0" encoding="UTF-8"?>
<svg version="1.1" viewBox="0 0 2304 2048" width="1280" height="1280" xmlns="http://www.w3.org/2000/svg">
<path transform="translate(817,893)" d="m0 0h38l23 3 17 4 20 7 19 10 14 10 11 9 11 11 9 11 9 13 10 17 10 21 10 30 6 26 9 56 27 170 16 101 3 18 4 10 6 4h11l6-4 4-8 8-51 27-176 16-105 7-36 8-27 10-23 10-19 14-20h2l2-4 9-10 5-5 10-9 18-12 16-8 16-6 20-5 21-3h40l24 3 21 5 20 8 18 10 11 9 12 11 10 13 9 15 8 16 9 25 7 28 5 30 4 37 20 230 19 216 1 17-1 1h-171l-1-1-4-51-14-199-13-182-5-68-2-10-3-6-2-1h-9l-4 3h-2l-2 5-3 12-7 41-26 155-21 126-7 40-6 24-10 25-10 19-10 14-8 10-2 3h-2v2h-2l-2 4h-2l-2 4-11 9-15 10-15 8-22 8-19 4-8 1h-63l-18-3-20-6-14-6-19-11-16-13-14-14-11-14-7-10-10-17-10-24-7-24-10-56-16-91-25-142-13-75-4-13-6-7-3-1h-8l-5 4-3 8-2 15-8 113-8 112-14 198-4 58-1 9-1 1h-172v-9l6-66 7-81 13-148 6-70 9-102 4-32 6-29 9-29 9-20 8-14 14-19 15-15 18-13 17-10 20-8 23-6z" fill="#fff"/>
<path transform="translate(1941,904)" d="m0 0h280l1 1 1 144-2 2-249 1-30 2-25 4-17 5-16 8-6 4-7 6h-2l-2 4-8 10-8 16-6 18-4 19-2 22v130l2 22 4 20 6 18 9 17 9 11 8 7 16 9 19 7 20 4 25 3 58 1 211 1 1 6v139l-1 2h-289l-25-2-29-4-24-5-26-7-29-11-27-13-22-14-13-10-10-9-11-10v-2l-3-1-7-8-11-14-10-15-9-16-9-19-8-22-7-27-4-23-3-28v-142l3-30 6-31 8-26 8-21 10-20 12-19 13-17 12-13 13-13 17-13 15-10 21-12 20-9 25-9 25-7 24-5 29-4z" fill="#fff"/>
<path transform="translate(1666,476)" d="m0 0h500l21 2 22 5 19 7 17 9 13 10 12 12 10 14 8 17 5 16 5 25 1 21v41l-1 18-4 22-5 16-6 14-8 13-9 11-8 8-12 9-10 6-19 8-23 6-19 3-12 1h-179l-1-1v-200h86v130l87-1 18-2 12-4 9-6 5-6 4-10 3-19v-72l-2-18-3-10-5-9-8-7-10-4-15-3-275-1h-140l1 51h176l2 2v65l-1 2h-178v52h178l1 2v67l-2 2h-260l-1-1v-312z" fill="#fff"/>
<path transform="translate(138,476)" d="m0 0h386l23 2 18 4 13 5 13 7 10 8 8 9 7 11 4 12 2 11v46l-4 20-8 16-7 9-7 7-13 8-16 6-20 4-16 2-22 1 7 8 11 11 7 8 11 12 9 10 11 12 9 10 11 12 9 10 11 12 7 8 4 4v2l4 2 2 5h-100l-14-15-7-8-15-16-9-10-15-16-9-10-12-13-7-8-16-17-7-8-2-1 1 4v117l-2 1h-79l-1-1v-162l3-8 7-8 8-4 6-1 169-1 9-3 5-5 2-7 1-16-2-15-4-7-10-4h-376l-17 3-10 4-9 7-6 10-4 11-2 11-1 12v56l2 17 4 13 6 10 8 7 12 5 14 3 10 1 126 1 1 2v68l-1 1h-139l-25-3-17-4-17-6-16-8-11-7-10-9-5-5-9-10-8-13-7-15-5-17-4-23v-75l4-22 6-20 11-21 11-14 9-9 15-11 15-8 17-6 19-5 13-2z" fill="#fff"/>
<path transform="translate(132,888)" d="m0 0h27l43 1 30 3 19 4 16 6 13 8 8 7 8 11 5 11 3 12v42l-4 14-7 12-9 10-13 8-12 5 13 5 11 6 10 8 7 7 8 13 4 13 1 8v21l-2 18-5 15-6 11-10 11-10 7-16 7-19 5-25 4-32 2h-169l-1-1-1-66v-100l1-147zm-28 62-1 6v56h67l22-1 10-2 8-4 5-6 2-8v-20l-4-11-7-6-8-3-8-1zm0 125-1 2v64h97l12-3 8-6 4-8 1-5v-20l-3-10-5-7-8-4-8-2-11-1z" fill="#fff"/>
<path transform="translate(667,476)" d="m0 0h261l2 1v69l-2 1h-146l-31 1v51l8-1h169l2 1v67l-1 1h-178v52h179v70l-1 1h-261l-1-1z" fill="#fff"/>
<path transform="translate(1138,471)" d="m0 0h21l16 3 10 4 11 7 9 8 10 13 9 15 10 23 13 32 15 37 20 49 9 22 19 47 16 39 7 16v4h-88l-3-5-13-34-9-24v-2h-145l-1 5-20 53-3 6-1 1h-85l-1-3 9-20 15-37 15-36 15-37 16-38 10-25 12-29 15-36 10-19 11-15 8-9 14-9 10-4zm9 74-4 5-11 27-6 16-13 34-11 28-1 3h93l-6-18-15-40-17-45-6-10z" fill="#fff"/>
<path transform="translate(1297,476)" d="m0 0h320l2 1v68l-3 2h-116l1 241-2 2h-84l-1-1v-242h-117l-1-1v-69z" fill="#fff"/>
<path transform="translate(321,888)" d="m0 0h95l5 8 14 25 15 27 9 16 15 27 6 9 4 2 6-1 6-8 54-90 8-13 2-2h88l1 2-12 20-13 22-10 17-9 15-13 22-12 20-17 29-9 15-13 22-12 20-1 73v36l-4 2h-81l-1-1-1-27v-82l-17-29-15-25-17-29-15-25-17-29-12-20-17-29-7-11-4-7z" fill="#fff"/>
</svg>
